<svg width="30" height="31" viewBox="0 0 30 31" fill="none" xmlns="http://www.w3.org/2000/svg">
<path d="M14.8 0.899902C6.70005 0.899902 0 7.59992 0 15.6999C0 23.7999 6.70005 30.4999 14.8 30.4999C22.9 30.4999 29.6 23.7999 29.6 15.6999C29.6 7.49992 22.9 0.899902 14.8 0.899902Z" fill="#E4EDF4"/>
<path d="M19.6002 17.8001C18.7002 17.8001 17.9003 18.2001 17.4003 18.9001L12.7002 16.5001C12.8002 16.3001 12.8003 16.0001 12.8003 15.8001C12.8003 15.5001 12.7002 15.3001 12.7002 15.0001L17.4003 12.6001C17.9003 13.3001 18.7002 13.7001 19.6002 13.7001C21.1002 13.7001 22.4003 12.5001 22.4003 10.9001C22.4003 9.40009 21.2002 8.1001 19.6002 8.1001C18.1002 8.1001 16.8003 9.40009 16.8003 10.9001C16.8003 11.2001 16.8003 11.4001 16.9003 11.6001L12.2002 14.0001C11.7002 13.4001 10.9002 12.9001 10.0002 12.9001C8.50024 12.9001 7.2002 14.2001 7.2002 15.7001C7.2002 17.2001 8.40024 18.5001 10.0002 18.5001C10.9002 18.5001 11.7002 18.1001 12.2002 17.4001L16.9003 19.8001C16.8003 20.1001 16.8003 20.3001 16.8003 20.6001C16.8003 22.1001 18.1002 23.4001 19.6002 23.4001C21.1002 23.4001 22.4003 22.1001 22.4003 20.6001C22.4003 19.0001 21.1002 17.8001 19.6002 17.8001Z" fill="white"/>
</svg>
