<svg width="12" height="19" viewBox="0 0 12 19" fill="none" xmlns="http://www.w3.org/2000/svg">
<path d="M11.6409 6.46729C11.4166 6.60189 11.1474 6.64676 10.8782 6.64676C10.7436 6.64676 10.5641 6.60189 10.4295 6.60189C10.0706 7.05056 9.53221 7.31976 8.94894 7.31976C8.72461 7.31976 8.50028 7.27489 8.32081 7.18516C8.32081 7.18516 8.32081 7.23003 8.27594 7.27489C7.96188 7.76843 7.51321 8.03763 6.97481 8.17223L6.48127 16.5174H5.80827L5.31474 7.72356C5.00067 7.45436 4.8212 7.14029 4.6866 6.78136C4.32767 7.14029 3.879 7.31976 3.38547 7.31976C2.8022 7.31976 2.2638 7.05056 1.90487 6.60189C1.77026 6.64676 1.5908 6.64676 1.4562 6.64676C1.187 6.64676 0.917794 6.55702 0.693461 6.46729C0.379393 6.82622 0.244796 7.31976 0.289663 7.76843L1.27673 16.652C1.36646 17.5494 2.1292 18.2224 3.02653 18.2224H9.17328C10.0706 18.2224 10.8333 17.5494 10.9231 16.652L11.9101 7.76843C12.0896 7.31976 11.9101 6.82622 11.6409 6.46729ZM3.16113 16.4726L2.1292 7.58895H3.56493L4.05847 16.4726H3.16113ZM9.26301 16.4726H8.36568L8.85921 7.58895H10.2501L9.26301 16.4726Z" fill="#AFB0C0"/>
<path d="M4.28323 3.19198C4.41783 3.10225 4.55243 3.05739 4.68703 3.01252C4.68703 2.92279 4.64216 2.83305 4.64216 2.74332C4.64216 2.11518 5.0011 1.57678 5.49463 1.30758C5.31516 0.948641 4.91136 0.679443 4.46269 0.679443C3.83456 0.679443 3.29616 1.17298 3.29616 1.84598C3.29616 1.89085 3.29616 1.93572 3.29616 1.93572C3.07183 1.93572 2.89236 1.98058 2.71289 2.11518C3.47563 2.16005 4.05889 2.56385 4.28323 3.19198Z" fill="#AFB0C0"/>
<path d="M5.3144 3.01254C5.40413 3.01254 5.49386 3.01254 5.53873 3.05741C5.89767 2.69848 6.34633 2.519 6.83987 2.519C7.1988 2.519 7.51287 2.60874 7.82693 2.78821C7.96154 2.87794 8.09614 2.96767 8.18587 3.10227C8.36534 2.74333 8.6794 2.42927 9.08321 2.29467C8.9486 2.16007 8.76914 2.07033 8.58967 2.02547C8.63454 1.89087 8.6794 1.80114 8.6794 1.66654C8.6794 1.0384 8.18587 0.5 7.51287 0.5C6.88473 0.5 6.34633 0.993537 6.34633 1.66654C6.34633 1.7114 6.34633 1.75626 6.34633 1.75626C5.76307 1.75626 5.26953 2.24981 5.26953 2.83308C5.26953 2.83308 5.26953 2.92281 5.3144 3.01254Z" fill="#AFB0C0"/>
<path d="M8.59011 3.73038C8.59011 3.77524 8.63498 3.82011 8.63498 3.86497C8.72471 4.35851 8.67985 4.85204 8.41064 5.25584C8.41064 5.25584 8.41064 5.25585 8.41064 5.30071C8.63498 5.70451 8.67985 6.19805 8.59011 6.60185C8.72471 6.64671 8.85931 6.69157 8.99391 6.69157C9.57718 6.69157 10.0707 6.28777 10.2053 5.79424C10.3848 5.9737 10.654 6.06344 10.9232 6.06344C11.5064 6.06344 12 5.56991 12 4.98664C12 4.40337 11.5064 3.90984 10.9232 3.90984C10.9232 3.86497 10.9232 3.8201 10.9232 3.8201C10.9232 3.19197 10.4296 2.65356 9.75665 2.65356C9.12851 2.69843 8.63498 3.14711 8.59011 3.73038Z" fill="#AFB0C0"/>
<path d="M1.50112 6.06344C1.77032 6.06344 2.03952 5.9737 2.21899 5.79424C2.39845 6.33264 2.84712 6.69157 3.43039 6.69157C3.78932 6.69157 4.14826 6.51211 4.37259 6.28777C4.32773 6.24291 4.23799 6.24292 4.19312 6.19805C3.38552 5.70451 3.11632 4.6277 3.65472 3.77523C3.69959 3.73037 3.74446 3.64064 3.78932 3.59577C3.69959 3.05737 3.20606 2.65356 2.66765 2.65356C2.03952 2.65356 1.50112 3.1471 1.50112 3.8201C1.50112 3.86497 1.50112 3.90984 1.50112 3.90984C0.917851 3.90984 0.424316 4.40337 0.424316 4.98664C0.469183 5.61478 0.917851 6.06344 1.50112 6.06344Z" fill="#AFB0C0"/>
<path d="M7.51375 3.23708C7.28941 3.10248 7.06508 3.05762 6.84074 3.05762C6.43694 3.05762 6.03314 3.28195 5.76394 3.64088C5.76394 3.68575 5.71908 3.73062 5.71908 3.73062C5.53961 3.59602 5.31527 3.55114 5.09094 3.55114C4.68714 3.55114 4.32821 3.73061 4.10387 4.08955C3.78981 4.62795 3.9244 5.34582 4.46281 5.65988C4.64227 5.79448 4.86661 5.83935 5.04607 5.83935C5.09094 5.83935 5.18068 5.83935 5.22554 5.83935C5.04608 6.42262 5.27041 7.05075 5.80881 7.36481C6.03314 7.49941 6.30234 7.58915 6.52668 7.58915C6.97534 7.58915 7.42401 7.36482 7.69321 6.96102C8.05215 6.42262 7.96241 5.74962 7.51375 5.30095C7.60348 5.21122 7.69321 5.12148 7.78295 4.98688C8.27648 4.40361 8.09701 3.59602 7.51375 3.23708Z" fill="#AFB0C0"/>
</svg>
