<svg width="30" height="31" viewBox="0 0 30 31" fill="none" xmlns="http://www.w3.org/2000/svg">
<path d="M14.8 0.899902C6.70005 0.899902 0 7.59992 0 15.6999C0 23.7999 6.70005 30.4999 14.8 30.4999C22.9 30.4999 29.6 23.7999 29.6 15.6999C29.6 7.49992 22.9 0.899902 14.8 0.899902Z" fill="#E4EDF4"/>
<path d="M15.0999 7.09995L17.6999 12.3999C17.6999 12.4999 17.8 12.5 17.9 12.6L23.8 13.4999C24 13.4999 24.0999 13.7999 23.9999 13.9999L19.8 18.1C19.7 18.2 19.6999 18.2999 19.6999 18.3999L20.6999 24.2C20.6999 24.4 20.5 24.5999 20.3 24.4999L15.0999 21.7C14.9999 21.7 14.9 21.7 14.8 21.7L9.59992 24.4999C9.39992 24.5999 9.09989 24.4 9.19989 24.2L10.1999 18.3999C10.1999 18.2999 10.1999 18.2 10.0999 18.1L5.89996 13.9999C5.69996 13.7999 5.79992 13.4999 6.09992 13.4999L11.9999 12.6C12.0999 12.6 12.1999 12.4999 12.1999 12.3999L14.8 7.09995C14.6 6.89995 14.9999 6.89995 15.0999 7.09995Z" fill="#FDD009"/>
</svg>
