<svg width="17" height="22" viewBox="0 0 17 22" fill="none" xmlns="http://www.w3.org/2000/svg">
<path d="M2.26589 8.92953H15.2893C15.6756 8.92953 16.0067 8.59843 16.0067 8.21214C16.0067 7.82586 15.6756 7.49476 15.2893 7.49476H14.6823C14.3512 4.79075 12.199 2.63856 9.49499 2.30746V0.817516C9.49499 0.431228 9.16388 0.100098 8.77759 0.100098C8.39131 0.100098 8.0602 0.431228 8.0602 0.817516V2.30746C5.35619 2.63856 3.20402 4.79075 2.87291 7.49476H2.26589C1.8796 7.49476 1.5485 7.82586 1.5485 8.21214C1.49331 8.59843 1.82441 8.92953 2.26589 8.92953ZM8.77759 3.68705C10.985 3.68705 12.8612 5.3426 13.1923 7.43959H4.30769C4.69398 5.3426 6.51505 3.68705 8.77759 3.68705Z" fill="#AFB0C0"/>
<path d="M16.2826 19.7456H15.6204V15.1101H16.2826C16.6689 15.1101 17 14.779 17 14.3927C17 14.0065 16.6689 13.6754 16.2826 13.6754H14.6823V11.3576H15.2341C15.6204 11.3576 15.9515 11.0265 15.9515 10.6402C15.9515 10.2539 15.6204 9.92285 15.2341 9.92285H2.26588C1.8796 9.92285 1.5485 10.2539 1.5485 10.6402C1.5485 11.0265 1.8796 11.3576 2.26588 11.3576H2.81772V13.6754H1.21739C0.831105 13.6754 0.5 14.0065 0.5 14.3927C0.5 14.779 0.831105 15.1101 1.21739 15.1101H1.8796V19.7456H1.21739C0.831105 19.7456 0.5 20.0767 0.5 20.463C0.5 20.8493 0.831105 21.1804 1.21739 21.1804H16.2826C16.6689 21.1804 17 20.8493 17 20.463C17 20.0767 16.7241 19.7456 16.2826 19.7456ZM14.1856 19.7456H12.5853V15.1101H14.1856V19.7456ZM10.6538 13.6754H9.49498V11.3576H10.6538V13.6754ZM8.00502 13.6754H6.84615V11.3576H8.00502V13.6754ZM6.40468 15.1101H8.00502V19.7456H6.40468V15.1101ZM9.49498 15.1101H11.0953V19.7456H9.49498V15.1101ZM13.2475 13.6754H12.0886V11.3576H13.2475V13.6754ZM4.25251 11.3576H5.41137V13.6754H4.25251V11.3576ZM3.36956 15.1101H4.9699V19.7456H3.36956V15.1101Z" fill="#AFB0C0"/>
</svg>
