<svg width="168" height="59" viewBox="0 0 168 59" fill="none" xmlns="http://www.w3.org/2000/svg">
<path d="M20.4 1.80005C31.1 1.80005 39.8 10.5001 39.8 21.2001C39.8 31.9001 31.1 40.6 20.4 40.6C9.69999 40.6 1 31.9001 1 21.2001C1 10.5001 9.69999 1.80005 20.4 1.80005ZM20.4 0.800049C9.09999 0.800049 0 9.90005 0 21.2001C0 32.5 9.09999 41.6 20.4 41.6C31.7 41.6 40.8 32.5 40.8 21.2001C40.8 9.90005 31.7 0.800049 20.4 0.800049Z" fill="url(#paint0_radial)"/>
<path d="M20.4002 37.9C29.6233 37.9 37.1002 30.4232 37.1002 21.2C37.1002 11.9768 29.6233 4.5 20.4002 4.5C11.177 4.5 3.7002 11.9768 3.7002 21.2C3.7002 30.4232 11.177 37.9 20.4002 37.9Z" fill="url(#paint1_radial)"/>
<path d="M20.8002 8.79995L24.6002 16.5C24.7002 16.6 24.8002 16.7 24.9002 16.7L33.4002 17.9C33.7002 18 33.9002 18.4 33.6002 18.6L27.5002 24.6C27.4002 24.7 27.4002 24.8 27.4002 25L28.8002 33.4C28.9002 33.7 28.5002 34 28.2002 33.8L20.6002 29.8C20.5002 29.7 20.3002 29.7 20.2002 29.8L12.6002 33.8C12.3002 34 11.9002 33.7 12.0002 33.4L13.4002 25C13.4002 24.9 13.4002 24.7 13.3002 24.6L7.20016 18.6C6.90016 18.4 7.10016 17.9 7.40016 17.9L15.9002 16.7C16.0002 16.7 16.2002 16.6 16.2002 16.5L20.0002 8.79995C20.2002 8.49995 20.6002 8.49995 20.8002 8.79995Z" fill="url(#paint2_linear)"/>
<path d="M24.2001 48.7H16.6001C12.7001 48.7 9.6001 51.8 9.6001 55.7V58.2H31.3001V55.7C31.3001 51.9 28.1001 48.7 24.2001 48.7Z" fill="url(#paint3_radial)"/>
<path d="M24.9001 43.9001H16.0001C14.1001 43.9001 12.6001 45.4001 12.6001 47.3001H28.3001C28.3001 45.4001 26.7001 43.9001 24.9001 43.9001Z" fill="url(#paint4_radial)"/>
<path d="M60.7 4.30005C62.2 4.30005 63.5 4.50005 64.6 4.90005C65.7 5.30005 66.6 5.90005 67.2 6.60005C67.8 7.30005 68.3 8.10005 68.6 9.00005C68.9 9.90005 69 10.9 69 11.9C69 14.7 68.2 16.8 66.5 18.1C64.9 19.4 62.6 20.1 59.7 20.1H57.8V24.4001H52V4.30005H60.7ZM59.2 15.5C60.5 15.5 61.5 15.2 62.1 14.6C62.7 14 63 13.3 63 12.4C63 11.4 62.7 10.7 62.2 10C61.7 9.40005 60.9 9.00005 59.7 9.00005H57.9V15.4001H59.2V15.5Z" fill="#3D67AE"/>
<path d="M87.6002 19.6V24.4001H71.2002V4.30005H87.0002V9.10005H76.9002V12.4H85.2002V17H76.9002V19.7001H87.6002V19.6Z" fill="#3D67AE"/>
<path d="M107.9 7.10008C110 9.10008 111 11.6001 111 14.4001C111 17.3001 110 19.7001 107.9 21.7001C105.8 23.7001 103.3 24.7001 100.3 24.7001C97.3 24.7001 94.8 23.7001 92.7 21.7001C90.6 19.7001 89.5 17.2001 89.5 14.4001C89.5 11.5001 90.6 9.10008 92.7 7.10008C94.8 5.10008 97.3 4.10008 100.3 4.10008C103.2 4.00008 105.8 5.00008 107.9 7.10008ZM103.7 18.0001C104.6 17.0001 105.1 15.8001 105.1 14.4001C105.1 13.0001 104.6 11.8001 103.7 10.8001C102.8 9.80008 101.6 9.30008 100.3 9.30008C99 9.30008 97.9 9.80008 96.9 10.8001C96 11.8001 95.5 13.0001 95.5 14.4001C95.5 15.8001 96 17.0001 96.9 18.0001C97.8 19.0001 99 19.5001 100.3 19.5001C101.6 19.5001 102.7 19.0001 103.7 18.0001Z" fill="#3D67AE"/>
<path d="M122.5 4.30005C124 4.30005 125.3 4.50005 126.4 4.90005C127.5 5.30005 128.4 5.90005 129 6.60005C129.6 7.30005 130.1 8.10005 130.4 9.00005C130.7 9.90005 130.8 10.9 130.8 11.9C130.8 14.7 130 16.8 128.3 18.1C126.7 19.4 124.4 20.1 121.5 20.1H119.6V24.4001H113.7V4.30005H122.5ZM121 15.5C122.3 15.5 123.3 15.2 123.9 14.6C124.5 14 124.8 13.3 124.8 12.4C124.8 11.4 124.5 10.7 124 10C123.5 9.40005 122.7 9.00005 121.5 9.00005H119.7V15.4001H121V15.5Z" fill="#3D67AE"/>
<path d="M148.4 19.8V24.4001H133V4.30005H138.9V19.8H148.4Z" fill="#3D67AE"/>
<path d="M167.1 19.6V24.4001H150.7V4.30005H166.5V9.10005H156.4V12.4H164.7V17H156.4V19.7001H167.1V19.6Z" fill="#3D67AE"/>
<path d="M74.6 31V58.1H73.3L54.2 35.3V58.1H52V31H53.3L72.4 53.9V31H74.6Z" fill="#3D67AE"/>
<path d="M100.6 56.1V58.1H81.5V31H99.7V33H83.6V43.9H97.3V45.9H83.6V56H100.6V56.1Z" fill="#3D67AE"/>
<path d="M133.7 58.1H132.6L123.9 34.9L115.2 58.1H114.1L103.8 31H106.2L114.7 53.9L123.3 31H124.5L133 53.9L141.6 31H144L133.7 58.1Z" fill="#3D67AE"/>
<path d="M160.7 44.3C161.5 44.6 162.4 44.9 163.3 45.3C164.2 45.7 164.9 46.2 165.4 46.7C165.9 47.2 166.4 47.8 166.7 48.5C167 49.2001 167.2 50.0001 167.2 50.9001C167.2 53.2001 166.3 55.0001 164.5 56.3001C162.7 57.6001 160.4 58.2 157.4 58.2C155.2 58.2 153.4 58 152.1 57.7C150.8 57.4 149.1 56.7 147 55.7L147.9 53.9001C149.8 54.8001 151.4 55.5 152.7 55.7C154 55.9 155.6 56.1 157.6 56.1C159.9 56.1 161.7 55.7001 163 54.8001C164.3 53.9001 165 52.6 165 51C165 50.2001 164.8 49.5001 164.4 48.9001C164 48.3001 163.5 47.8001 162.7 47.4001C161.9 47.0001 161.1 46.6001 160.3 46.4001C159.5 46.1001 158.4 45.8 157.2 45.5C155.9 45.2 154.9 44.9001 154.1 44.7001C153.3 44.5001 152.4 44.1 151.4 43.7001C150.5 43.3001 149.7 42.8 149.2 42.3C148.6 41.8 148.2 41.2 147.8 40.5C147.4 39.8 147.2 38.9 147.2 38C147.2 35.9 148 34.1 149.7 32.8C151.4 31.5 153.7 30.8 156.5 30.8C158.2 30.8 159.9 31.0001 161.7 31.4001C163.5 31.8001 165 32.3001 166.1 32.9001C166 33.1001 165.9 33.4001 165.6 33.9001C165.3 34.4001 165.2 34.7 165.1 34.8C164 34.2 162.6 33.8001 161 33.4001C159.3 33.0001 157.8 32.9001 156.4 32.9001C154.2 32.9001 152.5 33.4 151.3 34.3C150 35.2 149.4 36.4001 149.4 37.9001C149.4 38.5001 149.5 39.1 149.8 39.6C150.1 40.1 150.5 40.5001 150.9 40.9001C151.3 41.3001 151.9 41.6001 152.7 41.9001C153.5 42.2001 154.2 42.5001 154.9 42.7001C155.6 42.9001 156.5 43.2001 157.6 43.4001C158.8 43.7001 159.8 44 160.7 44.3Z" fill="#3D67AE"/>
<path d="M167.2 26.8H51.7998V27.9001H167.2V26.8Z" fill="#3D67AE"/>
<defs>
<radialGradient id="paint0_radial" cx="0" cy="0" r="1" gradientUnits="userSpaceOnUse" gradientTransform="translate(20.4192 21.2086) scale(20.4191)">
<stop stop-color="#00A8F7"/>
<stop offset="0.2374" stop-color="#00A8F7"/>
<stop offset="1" stop-color="#346CD3"/>
</radialGradient>
<radialGradient id="paint1_radial" cx="0" cy="0" r="1" gradientUnits="userSpaceOnUse" gradientTransform="translate(-2.78151 -14.4206) scale(52.4851)">
<stop offset="0.2374" stop-color="#00A8F7"/>
<stop offset="1" stop-color="#346CD3"/>
</radialGradient>
<linearGradient id="paint2_linear" x1="7.11576" y1="21.2086" x2="33.723" y2="21.2086" gradientUnits="userSpaceOnUse">
<stop stop-color="#FDD009"/>
<stop offset="1" stop-color="#E9A131"/>
</linearGradient>
<radialGradient id="paint3_radial" cx="0" cy="0" r="1" gradientUnits="userSpaceOnUse" gradientTransform="translate(20.4193 53.467) scale(8.3618)">
<stop offset="0.2374" stop-color="#346CD3"/>
<stop offset="1" stop-color="#346CD3"/>
</radialGradient>
<radialGradient id="paint4_radial" cx="0" cy="0" r="1" gradientUnits="userSpaceOnUse" gradientTransform="translate(20.4193 45.6384) scale(5.6899)">
<stop offset="0.2374" stop-color="#346CD3"/>
<stop offset="1" stop-color="#346CD3"/>
</radialGradient>
</defs>
</svg>
