<svg width="30" height="31" viewBox="0 0 30 31" fill="none" xmlns="http://www.w3.org/2000/svg">
<path d="M14.8 0.899902C6.70005 0.899902 0 7.59992 0 15.6999C0 23.7999 6.70005 30.4999 14.8 30.4999C22.9 30.4999 29.6 23.7999 29.6 15.6999C29.6 7.49992 22.9 0.899902 14.8 0.899902Z" fill="#E4EDF4"/>
<path d="M19.4001 23.4001V7.40005C19.4001 7.10005 19.2002 6.80005 18.8002 6.80005H10.7001C10.4001 6.80005 10.1001 7.00005 10.1001 7.40005V23.4001C10.1001 24.0001 10.6001 24.5001 11.2001 24.5001C11.5001 24.5001 11.7001 24.4001 11.9001 24.2001L14.7001 21.6001L17.5001 24.2001C17.7001 24.4001 17.9001 24.5001 18.2001 24.5001C18.9001 24.5001 19.4001 24.0001 19.4001 23.4001ZM18.3002 23.3L15.5001 20.8C15.3001 20.6 15.1002 20.5001 14.8002 20.5001C14.5002 20.5001 14.3001 20.6 14.1001 20.8L11.3002 23.3V8.00006H18.3002V23.3Z" fill="white"/>
</svg>
