<svg width="53" height="33" viewBox="0 0 53 33" fill="none" xmlns="http://www.w3.org/2000/svg">
<path d="M49.9 7.89995H3.1C1.4 7.89995 0 6.49995 0 4.79995V3.79995C0 2.09995 1.4 0.699951 3.1 0.699951H49.8C51.5 0.699951 52.9 2.09995 52.9 3.79995V4.79995C53 6.49995 51.6 7.89995 49.9 7.89995Z" fill="#AFB0C0"/>
<path d="M49.9 20.4H3.1C1.4 20.4 0 18.9999 0 17.2999V16.2999C0 14.5999 1.4 13.2 3.1 13.2H49.8C51.5 13.2 52.9 14.5999 52.9 16.2999V17.2999C53 18.9999 51.6 20.4 49.9 20.4Z" fill="#AFB0C0"/>
<path d="M49.9 32.2999H3.1C1.4 32.2999 0 30.8999 0 29.1999V28.1999C0 26.4999 1.4 25.0999 3.1 25.0999H49.8C51.5 25.0999 52.9 26.4999 52.9 28.1999V29.1999C53 30.8999 51.6 32.2999 49.9 32.2999Z" fill="#AFB0C0"/>
</svg>
