<svg width="18" height="18" viewBox="0 0 18 18" fill="none" xmlns="http://www.w3.org/2000/svg">
<path d="M17.9148 4.88769C17.7474 4.59471 17.3708 4.51101 17.0778 4.67842L15.0688 5.89218L14.8177 5.18067C14.9851 4.59472 14.734 3.92506 14.148 3.67395C13.8969 3.54839 13.4365 3.33911 13.1436 3.33911L10.465 3.38097C10.172 3.38097 9.92087 3.59024 9.87901 3.88321L9.58604 6.14329L10.5487 5.55734C10.6742 5.47364 10.7579 5.47363 10.8835 5.43178L11.0091 4.55287H11.8461L11.4276 5.47363C11.6787 5.55734 11.9298 5.72474 12.0972 5.97586C12.3902 6.4781 12.2646 7.14777 11.7624 7.4826C11.6368 7.5663 10.5905 8.19409 10.465 8.27779L10.0046 10.4542L7.99561 9.86824C7.78635 9.82639 7.57708 9.82636 7.40967 9.95192L8.62341 11.0401C8.83268 11.2075 8.95824 11.4586 9.00009 11.7098L10.3813 12.1283C10.7998 12.2539 11.2183 12.0027 11.302 11.5842L11.7206 9.6171L13.2273 10.9146L12.5158 14.8069C12.4321 15.2255 12.725 15.6021 13.1017 15.6858C13.5202 15.7695 13.8969 15.4766 13.9806 15.0999L14.7758 10.8309C14.8177 10.5797 14.734 10.3286 14.5247 10.1612L13.2273 8.9893L14.148 6.89664L14.1899 7.06406C14.3155 7.44074 14.734 7.5663 15.0688 7.39888L17.7056 5.80847C17.9986 5.51549 18.0823 5.18066 17.9148 4.88769Z" fill="#AFB0C0"/>
<path d="M6.94911 10.2449L7.15838 9.7427L7.57691 8.82195L7.86989 8.15228L7.91174 8.31971C8.0373 8.69639 8.45583 8.82194 8.79066 8.65453L11.4274 7.06411C11.7204 6.8967 11.8041 6.52002 11.6367 6.22704C11.4693 5.93407 11.0926 5.85036 10.7996 6.01778L8.79066 7.23151L8.53954 6.52002C8.70695 5.93408 8.45583 5.26441 7.86989 5.01329C7.82803 5.01329 7.4095 4.80402 7.4095 4.80402C7.28394 4.76217 7.03282 4.67847 6.82356 4.67847L4.1868 4.72032C3.89382 4.72032 3.6427 4.92958 3.60085 5.22255L3.22417 7.90117C3.18232 8.236 3.39159 8.52896 3.72641 8.57082C4.06124 8.61267 4.35421 8.4034 4.39606 8.06857L4.68904 5.89222H5.5261L4.2705 8.69637C4.14494 8.94749 4.14494 9.24047 4.14494 9.49159L3.68456 11.7935L1.6756 11.2076C1.29892 11.082 0.88039 11.3331 0.75483 11.7098C0.62927 12.0865 0.880388 12.505 1.25707 12.6306L4.01938 13.4677C4.43792 13.5932 4.85645 13.3421 4.94016 12.9236C5.27498 11.2494 5.19128 11.668 5.35869 10.9565L6.86541 12.2539L6.1539 16.1463C6.07019 16.5648 6.36317 16.9415 6.73985 17.0252C7.15838 17.1089 7.53506 16.8159 7.61877 16.4392L8.41398 12.1702C8.45583 11.9191 8.37213 11.668 8.16286 11.5005L6.94911 10.2449Z" fill="#AFB0C0"/>
<path d="M7.82787 4.5946C8.53937 4.92942 9.37644 4.59461 9.71126 3.8831C10.0461 3.17159 9.71127 2.33453 8.99976 1.9997C8.28825 1.66488 7.45119 1.99969 7.11636 2.7112C6.73968 3.46456 7.11636 4.30163 7.82787 4.5946Z" fill="#AFB0C0"/>
<path d="M14.0642 3.21351C14.7757 3.54833 15.6128 3.2135 15.9476 2.50199C16.2825 1.79049 15.9476 0.953423 15.2361 0.618596C14.5246 0.28377 13.6876 0.618602 13.3527 1.33011C13.0179 2.08347 13.3527 2.92053 14.0642 3.21351Z" fill="#AFB0C0"/>
</svg>
