<svg width="15" height="17" viewBox="0 0 15 17" fill="none" xmlns="http://www.w3.org/2000/svg">
<path d="M14.8501 13.026L12.63 10.8182V3.70909L13.0296 3.31169C13.2516 3.09091 13.2516 2.73767 13.0296 2.51689C12.8076 2.29611 12.4524 2.29611 12.2304 2.51689L11.7863 2.95845H4.68187L1.88448 0.176621C1.75128 0.0441531 1.57366 0 1.39605 0C1.21844 0.0441558 1.04083 0.132473 0.95202 0.309096C-0.55768 3.53247 -0.246857 7.32988 1.70687 10.2442V15.4545C1.70687 16.2935 2.41732 17 3.26097 17H9.6994C10.321 17 10.8983 16.6467 11.1203 16.0286C11.2979 15.6312 11.2979 15.2338 11.1203 14.8805C12.3192 14.7922 13.518 14.4831 14.6725 13.9532C14.8501 13.8649 14.9833 13.7325 14.9833 13.5117C15.0278 13.3351 14.9833 13.1584 14.8501 13.026ZM11.4311 9.67013L8.98895 7.24156L11.4311 4.81298V9.67013ZM10.5875 4.06234L8.2341 6.4026L5.88075 4.06234H10.5875ZM10.0546 15.587C10.0102 15.6753 9.92141 15.8078 9.6994 15.8078H3.26097C3.03896 15.8078 2.86135 15.6312 2.86135 15.4104V11.6571C2.90575 11.7013 2.99456 11.7896 3.03896 11.8338C4.85948 13.6442 7.21284 14.6597 9.655 14.8364L9.96582 15.1454C10.1434 15.3221 10.099 15.5429 10.0546 15.587ZM3.88262 11.039C1.35165 8.52208 0.507993 4.81299 1.70687 1.54545L13.4292 13.2026C10.1434 14.3948 6.41358 13.5558 3.88262 11.039Z" fill="#AFB0C0"/>
</svg>
