<svg width="25" height="25" viewBox="0 0 25 25" fill="none" xmlns="http://www.w3.org/2000/svg">
<path d="M23.6 19.3999L19.6 15.3999C20.3 13.8999 20.9 12.1999 20.9 10.5999C20.9 4.8999 16.4 0.399902 10.7 0.399902C5.00001 0.399902 0.5 4.8999 0.5 10.5999C0.5 16.2999 5.00001 20.7999 10.7 20.7999C12.4 20.7999 14.1 20.2999 15.5 19.4999L19.5 23.4999C20.8 24.7999 22.5 24.7999 23.7 23.4999C24.6 22.4999 24.6 20.6999 23.6 19.3999ZM10.5 18.4999C6.2 18.4999 2.70001 14.9999 2.70001 10.6999C2.70001 6.3999 6.2 2.8999 10.5 2.8999C14.8 2.8999 18.3 6.3999 18.3 10.6999C18.3 14.9999 14.9 18.4999 10.5 18.4999Z" fill="#AFB0C0"/>
</svg>
